<?xml version="1.0" standalone="no"?>
<!DOCTYPE svg PUBLIC "-//W3C//DTD SVG 20010904//EN"
 "http://www.w3.org/TR/2001/REC-SVG-20010904/DTD/svg10.dtd">
<svg version="1.0" xmlns="http://www.w3.org/2000/svg"
 width="512.000000pt" height="512.000000pt" viewBox="0 0 512.000000 512.000000"
 preserveAspectRatio="xMidYMid meet">
<metadata>
Created by potrace 1.14, written by Peter Selinger 2001-2017
</metadata>
<g transform="translate(0.000000,512.000000) scale(0.100000,-0.100000)"
fill="#000000" stroke="none">
<path d="M0 2560 l0 -2560 2560 0 2560 0 0 2560 0 2560 -2560 0 -2560 0 0
-2560z m3055 1895 c44 -9 109 -23 145 -30 249 -53 543 -227 632 -375 12 -19
32 -47 46 -62 21 -23 23 -30 12 -43 -7 -9 -29 -15 -52 -15 -52 0 -78 -15 -78
-46 0 -32 24 -41 56 -20 16 11 41 16 72 14 l46 -3 28 -80 c15 -46 27 -102 28
-132 0 -29 5 -75 11 -103 16 -74 -5 -295 -32 -332 -10 -15 -19 -38 -19 -52 0
-27 -9 -51 -43 -111 -20 -36 -26 -40 -55 -37 -33 4 -43 -13 -21 -35 6 -6 8
-21 4 -34 -9 -27 -117 -134 -194 -191 -53 -40 -236 -138 -257 -138 -18 0 -34
-24 -25 -39 5 -7 37 -21 72 -31 87 -25 179 -58 193 -69 6 -5 22 -12 35 -16 35
-11 157 -90 218 -141 99 -84 213 -267 213 -340 0 -39 -14 -45 -57 -27 -18 7
-40 13 -49 13 -9 0 -41 12 -70 27 -44 22 -55 24 -68 14 -52 -44 14 -79 181
-98 69 -7 103 -37 103 -90 0 -57 -11 -69 -49 -53 -50 20 -65 8 -57 -48 13 -85
12 -87 -11 -90 -19 -3 -22 2 -25 35 -3 36 -5 38 -47 45 -24 4 -54 17 -66 28
-29 27 -50 25 -87 -10 -40 -39 -56 -38 -74 5 -13 31 -17 34 -43 29 -57 -12
-109 80 -66 116 24 20 18 40 -21 77 -33 30 -86 103 -135 182 -8 14 -33 35 -55
47 -111 60 -109 58 -112 105 -6 76 -35 89 -82 37 l-29 -31 -58 12 c-32 7 -89
22 -128 32 -133 35 -265 68 -440 109 -76 18 -94 26 -121 56 -28 30 -36 34 -61
27 -55 -16 -222 2 -247 27 -20 20 25 49 103 65 42 8 114 24 161 34 47 11 127
23 179 26 55 4 104 13 116 21 23 15 211 64 246 64 25 0 171 52 229 82 115 59
205 147 250 245 12 26 26 57 32 68 14 24 41 189 40 235 -1 19 -4 61 -8 94 -4
40 -2 61 6 66 6 4 72 6 146 5 119 -2 136 -4 149 -21 12 -17 17 -18 47 -5 18 7
52 16 76 21 51 8 60 16 46 38 -14 21 -102 28 -155 13 -23 -7 -47 -7 -69 -1
-28 8 -41 6 -72 -10 -36 -19 -41 -19 -75 -5 -19 8 -50 15 -69 15 -38 0 -48 11
-39 41 6 19 12 20 75 14 81 -8 123 6 97 32 -9 9 -28 15 -44 15 -130 -5 -157
-2 -185 25 -33 32 -36 57 -7 77 19 13 27 12 75 -6 63 -24 84 -19 84 20 0 26 4
30 39 36 42 6 66 28 57 51 -8 21 -49 19 -96 -5 -29 -15 -59 -20 -114 -20 -80
0 -221 23 -240 39 -26 22 -164 72 -225 81 -82 14 -104 26 -98 52 6 23 -32 68
-57 68 -18 0 -36 -30 -36 -59 0 -15 -7 -21 -22 -22 -13 0 -202 0 -421 1 -294
1 -402 -2 -413 -11 -10 -8 -14 -36 -14 -104 0 -67 -4 -96 -14 -104 -10 -9 -42
-9 -122 -2 l-109 9 -22 -26 c-21 -25 -29 -27 -95 -27 -85 0 -98 -18 -35 -49
31 -15 43 -16 63 -7 51 23 81 10 69 -30 -9 -27 -63 -49 -122 -49 -27 0 -63 -4
-82 -10 -22 -6 -40 -6 -52 1 -18 9 -19 28 -19 377 0 361 0 368 22 410 l23 43
780 -4 c684 -4 790 -7 860 -22z m-1188 -701 c23 -3 34 -11 38 -27 3 -12 4
-121 3 -242 -3 -212 -4 -220 -23 -220 -13 0 -27 14 -40 39 -11 22 -26 41 -34
44 -7 2 -28 -10 -46 -28 -28 -27 -36 -30 -54 -21 -33 18 -25 48 31 107 36 39
48 58 41 65 -6 6 -44 14 -84 17 -56 5 -74 11 -74 22 0 11 12 15 44 15 54 0 75
23 48 53 -19 21 -22 57 -6 68 7 4 9 24 6 51 -7 69 16 78 150 57z m-382 -244
c0 -24 -79 -21 -83 3 -3 16 2 18 40 15 30 -2 43 -7 43 -18z m87 -110 c-1 -19
3 -47 9 -62 13 -32 -3 -63 -28 -54 -18 7 -43 -4 -43 -19 0 -8 -11 -27 -25 -43
-29 -35 -30 -43 -10 -83 14 -25 14 -35 3 -65 -7 -20 -20 -40 -29 -45 -27 -14
-79 85 -79 149 0 52 11 68 63 90 36 16 32 43 -8 57 -47 16 -55 24 -55 55 0 51
21 61 119 58 l86 -3 -3 -35z m237 -144 c6 -7 8 -26 5 -45 -8 -37 9 -61 40 -61
37 0 60 -23 52 -53 -5 -23 -12 -27 -45 -27 -73 0 -82 -61 -10 -68 55 -6 59
-15 59 -121 0 -109 -6 -121 -60 -121 -19 0 -55 -5 -80 -12 -25 -6 -101 -11
-170 -12 -73 -1 -133 -6 -145 -13 -18 -10 -16 -12 19 -27 46 -19 47 -49 1 -54
-55 -5 -60 -10 -36 -35 26 -29 27 -43 2 -57 -17 -9 -59 -14 -62 -7 -1 1 -3 89
-5 195 -4 139 -2 198 7 208 17 21 54 17 107 -11 61 -32 142 -35 172 -5 11 11
20 23 20 28 0 4 -28 16 -62 27 -66 21 -70 26 -86 95 -13 55 4 90 43 90 22 0
25 -4 25 -40 0 -46 17 -59 54 -42 27 12 63 109 52 138 -3 9 -1 23 5 30 15 18
83 18 98 0z m-168 -701 c19 -13 44 -32 57 -41 21 -15 31 -16 86 -5 74 15 114
7 121 -23 3 -11 4 -95 3 -186 l-3 -165 -42 -20 c-45 -20 -56 -35 -47 -60 5
-11 18 -14 48 -13 l41 3 5 -498 c5 -484 6 -499 25 -514 17 -13 81 -14 475 -10
472 5 654 18 719 52 17 8 35 15 42 15 48 0 238 122 278 179 12 16 34 31 51 34
26 6 30 11 30 38 0 84 44 149 101 149 38 0 37 16 0 23 -19 4 -32 14 -36 28
-11 32 26 59 80 59 23 0 56 7 72 15 28 14 36 14 79 -2 35 -12 82 -17 164 -17
l115 -1 7 -65 c5 -54 2 -79 -20 -150 -14 -47 -31 -94 -38 -105 -6 -11 -15 -31
-19 -45 -4 -13 -16 -36 -25 -50 -10 -14 -33 -50 -53 -80 -20 -30 -66 -86 -103
-124 l-67 -68 -47 6 c-72 10 -104 -12 -65 -44 20 -17 19 -39 -2 -47 -10 -4
-35 -18 -55 -31 -30 -19 -46 -23 -74 -19 -33 6 -40 2 -75 -33 -41 -41 -70 -54
-110 -48 -36 5 -37 43 -3 60 32 15 69 72 60 93 -7 19 -60 20 -75 1 -6 -7 -9
-20 -5 -29 10 -27 -13 -54 -51 -60 -43 -7 -93 -42 -105 -73 -10 -25 -76 -64
-110 -64 -16 0 -20 6 -18 31 4 44 -12 45 -54 5 -63 -62 -168 -72 -176 -18 -4
27 -15 28 -33 3 -10 -14 -31 -22 -71 -27 -63 -7 -73 3 -42 37 15 17 15 20 0
44 -9 14 -26 25 -37 25 -27 0 -79 -52 -79 -79 0 -11 -8 -25 -18 -30 -10 -5
-177 -10 -389 -10 -370 -1 -372 -1 -400 22 -55 44 -93 60 -108 47 -19 -16 -19
-30 0 -30 8 0 15 -5 15 -11 0 -6 -6 -9 -13 -6 -7 3 -24 -1 -38 -9 -29 -16
-132 -18 -160 -4 -10 6 -19 20 -19 31 0 12 -13 33 -30 47 l-30 26 0 246 c0
259 2 270 46 270 33 0 45 22 38 69 -6 36 -11 43 -35 48 -60 12 -64 69 -6 75
24 2 32 8 32 23 0 14 -8 21 -27 23 -43 5 -49 21 -46 132 2 79 6 105 18 111
107 55 155 62 204 30 16 -11 36 -17 45 -13 32 12 131 94 131 108 0 24 -29 28
-67 10 -28 -13 -50 -16 -102 -10 -65 6 -69 5 -124 -30 -91 -58 -112 -46 -105
60 l3 49 45 5 c36 4 45 9 45 24 0 10 -7 22 -15 26 -71 33 -75 36 -78 65 -4 49
9 60 53 45 23 -8 58 -10 90 -6 56 6 70 0 99 -47 12 -19 24 -27 38 -25 29 4 46
33 33 54 -18 28 -132 84 -173 84 -51 1 -121 15 -134 28 -6 6 -8 22 -4 35 5 21
13 25 56 29 87 9 92 40 10 53 -62 10 -65 15 -68 102 -3 92 7 110 52 93 37 -14
129 -13 143 1 9 9 8 19 -2 40 -13 24 -13 30 1 43 21 22 35 20 75 -9z"/>
<path d="M3070 4371 c-9 -18 -7 -25 15 -45 37 -35 79 -49 120 -42 37 7 59 34
46 55 -5 7 -35 19 -67 26 -33 8 -69 17 -81 20 -16 5 -24 1 -33 -14z"/>
<path d="M3696 4001 c-4 -5 -2 -12 3 -15 5 -4 12 -2 15 3 4 5 2 12 -3 15 -5 4
-12 2 -15 -3z"/>
<path d="M3743 3752 c-88 -25 -68 -38 70 -45 108 -6 128 21 38 52 -40 13 -41
13 -108 -7z"/>
<path d="M3623 3483 c-7 -2 -13 -13 -13 -24 0 -14 7 -19 29 -19 39 0 61 9 61
25 0 21 -45 32 -77 18z"/>
<path d="M3570 3335 c0 -9 5 -15 11 -13 6 2 11 8 11 13 0 5 -5 11 -11 13 -6 2
-11 -4 -11 -13z"/>
<path d="M3833 3304 c-3 -8 -1 -20 5 -26 16 -16 42 -2 42 22 0 24 -38 28 -47
4z"/>
<path d="M3312 2748 c-22 -22 -13 -37 28 -48 46 -12 60 -7 60 21 0 31 -64 51
-88 27z"/>
<path d="M3657 2323 c-13 -12 -7 -23 13 -23 11 0 20 7 20 15 0 15 -21 21 -33
8z"/>
<path d="M3783 2229 c-13 -4 -23 -13 -23 -19 0 -19 31 -23 48 -6 21 21 5 37
-25 25z"/>
<path d="M3697 2073 c-15 -14 -6 -68 14 -89 29 -30 17 -59 -32 -85 -33 -16
-38 -23 -29 -34 9 -11 36 -13 116 -10 58 2 108 6 112 9 3 4 -4 13 -16 22 -43
30 -92 90 -102 123 -13 49 -46 82 -63 64z"/>
<path d="M1632 1938 c-20 -20 -14 -38 12 -38 29 0 39 12 30 34 -7 19 -25 21
-42 4z"/>
<path d="M3724 1519 c-25 -28 -10 -49 51 -72 36 -13 51 -15 61 -6 20 16 18 24
-17 64 -35 40 -67 45 -95 14z"/>
<path d="M1572 1477 c-15 -17 -6 -27 24 -27 67 0 72 -41 13 -105 -44 -47 -44
-66 -1 -63 65 4 90 -26 55 -65 -17 -18 -17 -19 0 -32 26 -19 116 -28 133 -14
24 20 16 46 -26 79 -43 34 -52 68 -25 90 23 19 18 47 -11 67 -14 10 -41 30
-59 46 -40 33 -86 44 -103 24z"/>
<path d="M3723 1353 c-30 -12 2 -83 37 -83 17 0 50 34 50 52 0 26 -52 46 -87
31z"/>
<path d="M3870 1345 c-18 -22 13 -67 43 -63 29 4 36 47 11 65 -23 17 -39 16
-54 -2z"/>
<path d="M3614 1255 c-7 -17 12 -45 31 -45 19 0 36 25 29 44 -8 20 -53 21 -60
1z"/>
<path d="M3066 885 c-11 -29 -7 -65 8 -71 20 -8 74 25 82 49 7 23 7 23 -42 32
-33 5 -43 3 -48 -10z"/>
<path d="M2888 853 c-11 -24 -22 -29 -68 -35 -30 -4 -72 -5 -92 -2 -21 3 -57
3 -80 -1 l-42 -7 55 -24 c30 -12 79 -28 109 -34 38 -9 63 -21 82 -41 29 -31
50 -36 65 -16 17 21 22 59 12 79 -14 25 -3 53 24 65 21 10 21 10 -10 26 -41
22 -40 22 -55 -10z"/>
<path d="M2446 743 c-4 -9 -1 -23 7 -30 12 -12 16 -12 26 1 16 19 8 46 -13 46
-7 0 -17 -8 -20 -17z"/>
<path d="M3097 723 c-14 -13 -6 -23 17 -23 30 0 42 15 20 24 -20 8 -29 8 -37
-1z"/>
</g>
</svg>
